<?xml version="1.0" encoding="UTF-8" standalone="no"?>
<!-- Created with Inkscape (http://www.inkscape.org/) -->

<svg
   width="25.660095mm"
   height="25.000008mm"
   viewBox="0 0 25.660095 25.000008"
   version="1.1"
   id="svg5"
   xml:space="preserve"
   xmlns="http://www.w3.org/2000/svg"
   xmlns:svg="http://www.w3.org/2000/svg"><defs
     id="defs2" /><g
     id="layer1"
     transform="translate(-113.2368,-73.859327)"><path
       style="fill:#ffffff;stroke-width:0.114256"
       d="m 121.31049,98.603042 c -1.85601,-0.77923 -3.23007,-1.71649 -4.54343,-3.09913 -4.81188,-5.06565 -4.68999,-12.99464 0.27573,-17.93547 2.91631,-2.9017 7.01533,-4.2049 11.12803,-3.53792 4.85375,0.78717 8.87217,4.366 10.2283,9.10941 1.31907,4.61377 -0.0275,9.53439 -3.51596,12.8481 -1.0639,1.01061 -1.98,1.63468 -3.35742,2.28717 -1.1919,0.56461 -1.85244,0.71611 -2.05359,0.471 -0.0811,-0.0989 -0.14125,-1.0239 -0.16664,-2.56438 l -0.0397,-2.4097 -0.36135,-0.70046 -0.36135,-0.70047 0.41848,-0.0717 c 3.72797,-0.63883 5.39169,-2.67264 5.25459,-6.42348 -0.0379,-1.03728 -0.0927,-1.32739 -0.3598,-1.90441 -0.17329,-0.37439 -0.44583,-0.85215 -0.60566,-1.06169 -0.25449,-0.33367 -0.27521,-0.42507 -0.16683,-0.73597 0.18055,-0.51793 0.15133,-1.6358 -0.0627,-2.39857 -0.1836,-0.65435 -0.19274,-0.66441 -0.59985,-0.66053 -0.49579,0.005 -1.80035,0.50658 -2.56652,0.98735 l -0.55355,0.34734 -0.7604,-0.17611 c -1.03668,-0.2401 -3.91487,-0.23934 -4.95472,0.001 -0.76568,0.17719 -0.76719,0.17705 -1.1911,-0.111 -0.63892,-0.43416 -2.21356,-1.04837 -2.69376,-1.05074 -0.41252,-0.002 -0.4288,0.014 -0.59984,0.58992 -0.20405,0.68711 -0.23083,1.95821 -0.0521,2.47102 0.10839,0.31091 0.0877,0.40231 -0.16684,0.73597 -0.15982,0.20954 -0.43236,0.6873 -0.60565,1.0617 -0.26708,0.57701 -0.32189,0.86713 -0.3598,1.9044 -0.13689,3.74512 1.54691,5.80688 5.24604,6.42364 l 0.40993,0.0684 -0.32423,0.6428 c -0.17833,0.35355 -0.32424,0.73337 -0.32424,0.84405 0,0.42951 -1.56075,0.6995 -2.3348,0.40389 -0.47647,-0.18197 -0.68892,-0.38237 -1.75704,-1.65739 -0.20819,-0.24852 -0.59718,-0.55769 -0.86443,-0.68707 -1.00703,-0.48749 -1.76347,-0.14621 -0.98452,0.44419 0.69839,0.52933 1.02917,0.9409 1.43599,1.78673 0.68898,1.43243 1.32982,1.80095 3.15011,1.81144 l 1.21606,0.007 0.0531,1.14256 c 0.0631,1.35874 -0.044,1.70163 -0.54367,1.7403 -0.18808,0.0145 -0.63128,-0.095 -0.98489,-0.24347 z"
       id="path929" /></g></svg>
