<?xml version="1.0" encoding="UTF-8" standalone="no"?>
<!-- Created with Inkscape (http://www.inkscape.org/) -->

<svg
   width="24.745644mm"
   height="25mm"
   viewBox="0 0 24.745644 25"
   version="1.1"
   id="svg5"
   xml:space="preserve"
   xmlns:inkscape="http://www.inkscape.org/namespaces/inkscape"
   xmlns:sodipodi="http://sodipodi.sourceforge.net/DTD/sodipodi-0.dtd"
   xmlns="http://www.w3.org/2000/svg"
   xmlns:svg="http://www.w3.org/2000/svg"><sodipodi:namedview
     id="namedview7"
     pagecolor="#505050"
     bordercolor="#eeeeee"
     borderopacity="1"
     inkscape:showpageshadow="0"
     inkscape:pageopacity="0"
     inkscape:pagecheckerboard="0"
     inkscape:deskcolor="#505050"
     inkscape:document-units="mm"
     showgrid="false" /><defs
     id="defs2" /><g
     inkscape:label="Camada 1"
     inkscape:groupmode="layer"
     id="layer1"
     transform="translate(-78.85087,-74.466741)"><path
       id="path892"
       style="fill:#ffffff;stroke-width:0.269009"
       d="M 82.032441,99.227531 C 80.86268,98.873033 80.033644,98.194663 79.40651,97.078829 78.814581,96.025632 78.808526,95.904075 78.884857,86.604355 c 0.08762,-10.676074 0.01654,-10.330147 2.369302,-11.532341 1.156732,-0.591061 1.390289,-0.605272 9.947852,-0.605272 8.55757,0 8.79113,0.01421 9.947859,0.605272 2.35307,1.202355 2.28167,0.854468 2.36934,11.545984 l 0.0773,9.422555 -0.67874,1.15818 c -0.45583,0.777826 -1.06126,1.343357 -1.84351,1.722038 -1.111469,0.538054 -1.557899,0.5628 -9.755399,0.540736 -4.724845,-0.01272 -8.903723,-0.118006 -9.2864,-0.233976 z m 4.999926,-9.56175 v -5.6492 h -2.017571 -2.017571 l -0.07313,5.372602 c -0.04022,2.954929 -0.0117,5.532672 0.06336,5.728316 0.0999,0.26036 0.660359,0.334504 2.09071,0.276598 l 1.954209,-0.07911 z m 5.783704,2.037097 v -3.74661 l 0.72814,-0.572749 c 0.50884,-0.40026 0.93417,-0.522332 1.4123,-0.405337 1.36885,0.334953 1.48477,0.681052 1.57877,4.71401 l 0.0876,3.757294 h 1.86272 1.862739 v -4.317512 c 0,-4.732934 -0.138,-5.294074 -1.605679,-6.52904 -1.21238,-1.020161 -2.91162,-1.195131 -4.43671,-0.456847 -0.67147,0.325057 -1.23293,0.731531 -1.24769,0.903277 -0.0147,0.171746 -0.11099,0.0097 -0.21387,-0.36026 -0.17663,-0.634961 -0.29157,-0.672523 -2.05802,-0.672523 h -1.870935 l -0.0726,5.716452 -0.07261,5.716453 h 2.022935 2.02291 z m -6.119965,-9.725489 c 0.950938,-1.163511 0.273292,-2.975738 -1.256266,-3.359634 -0.738838,-0.185436 -2.165586,0.469755 -2.410017,1.106725 -0.33984,0.885612 -0.148456,1.779613 0.525185,2.453252 0.576778,0.57678 0.857304,0.665873 1.68131,0.533974 0.543961,-0.08707 1.200867,-0.417516 1.459788,-0.734317 z" /></g></svg>
