<?xml version="1.0" encoding="UTF-8" standalone="no"?>
<!-- Created with Inkscape (http://www.inkscape.org/) -->

<svg
   width="24.899746mm"
   height="25mm"
   viewBox="0 0 24.899746 25"
   version="1.1"
   id="svg5"
   xml:space="preserve"
   xmlns="http://www.w3.org/2000/svg"
   xmlns:svg="http://www.w3.org/2000/svg"><defs
     id="defs2" /><g
     id="layer1"
     transform="translate(-43.645375,-74.610136)"><path
       style="fill:#ffffff;stroke-width:0.118864"
       d="m 43.645373,99.609992 c 0,-0.009 0.397296,-1.45762 0.88288,-3.22007 l 0.882881,-3.20445 -0.219419,-0.35671 c -0.410537,-0.6674 -0.944721,-2.18537 -1.186422,-3.37142 -0.691547,-3.39348 0.101849,-7.0045 2.147869,-9.7757 0.712676,-0.96528 2.190797,-2.3886 3.115506,-3.00001 6.253693,-4.13487 14.685822,-1.85742 17.974993,4.85491 1.78748,3.64777 1.731938,7.6681 -0.155639,11.2657 -3.00969,5.73628 -10.168617,8.206068 -15.989965,5.51644 l -0.898994,-0.41536 -3.276845,0.86114 c -1.802265,0.47364 -3.276845,0.85413 -3.276845,0.84553 z m 14.434921,-2.45721 c 2.438895,-0.43281 4.968429,-2.04464 6.442221,-4.105 0.781983,-1.09321 1.460061,-2.63896 1.731829,-3.9479 0.300541,-1.44752 0.241001,-3.53457 -0.138866,-4.86762 -0.985058,-3.45683 -3.881008,-6.33816 -7.246954,-7.21037 -2.466551,-0.63915 -4.870668,-0.41615 -7.140372,0.66232 -2.811283,1.3358 -4.790723,3.74043 -5.617311,6.82393 -0.359887,1.34253 -0.359887,3.64979 0,4.99231 0.282948,1.05551 0.705414,2.07337 1.158379,2.79091 0.164273,0.26022 0.298678,0.55711 0.298678,0.65974 0,0.10263 -0.217899,0.96449 -0.484221,1.91524 -0.266321,0.95075 -0.464052,1.74881 -0.4394,1.77346 0.02465,0.0247 0.889109,-0.17452 1.921016,-0.44261 l 1.876196,-0.48742 1.148505,0.54426 c 1.413068,0.66963 2.221364,0.90384 3.493299,1.01221 1.133986,0.0966 1.997412,0.0639 2.997001,-0.11346 z m 0.660858,-4.27053 c -0.801512,-0.13506 -2.503749,-0.78662 -3.288327,-1.25868 -1.653719,-0.99499 -3.226725,-2.53058 -4.420595,-4.31544 -1.352543,-2.02207 -1.535395,-3.66581 -0.565894,-5.08705 0.570994,-0.83705 1.545701,-1.21983 2.206144,-0.86637 0.121628,0.0651 0.484906,0.77054 0.833898,1.61933 l 0.618383,1.50399 -0.455402,0.64653 c -0.250471,0.35559 -0.508113,0.72262 -0.572537,0.81561 -0.237593,0.34297 1.001878,2.03014 2.131893,2.90195 0.694755,0.53599 2.147787,1.31113 2.458887,1.31172 0.10699,2.3e-4 0.501944,-0.37539 0.877676,-0.83465 0.793766,-0.97022 0.601668,-0.96622 2.523446,-0.0525 1.306753,0.62128 1.337209,0.64473 1.336561,1.02911 -0.0018,1.06483 -0.484135,1.81687 -1.460882,2.27772 -0.709477,0.33476 -1.454747,0.43825 -2.223251,0.30877 z"
       id="path915" /></g></svg>
